<?xml version="1.0" encoding="UTF-8"?>
<!-- Created with Inkscape (http://www.inkscape.org/) -->
<svg width="50" height="50" version="1.1" viewBox="0 0 13.229 13.229" xmlns="http://www.w3.org/2000/svg">
 <g fill="#ffffff">
  <path d="m8.803 1.8623c0.040911 0.97496 0.84144 2.0007 1.9143 1.9016" stroke="#ffffff" stroke-linecap="round" stroke-linejoin="round" stroke-width=".765"/>
  <g stroke-width="0">
   <path d="m5.7088 6.7626c0.022377 0.24939 0.20283 0.39912 0.39057 0.54425l1.3483 0.2222c0.3411-0.21259 0.38524-0.49092 0.072622-0.84192l-1.0586-0.12406-0.88061-1.1185-0.89766-0.062665c-0.70713 0.12316-1.0775 0.50356-1.5484 0.80714l-0.69118 1.2826c0.061056 0.45432 0.31192 0.51481 0.65844 0.37683l0.59804-1.1356 0.21233-0.064789-0.35926 1.3856c-0.032592 0.32532 0.08855 0.54365 0.30593 0.69501l1.2996 1.2138 0.69366 1.8356c0.54936 0.34782 0.76506 0.14717 0.82067-0.31664l-0.62834-2.0077-0.88523-0.89643z"/>
   <path d="m3.8513 9.2188 0.72793 0.70262-0.68923 1.9017c-0.4598 0.20179-0.79031 0.12853-0.86528-0.48842z"/>
   <circle cx="5.1684" cy="4.2418" r=".9234" style="paint-order:fill markers stroke"/>
  </g>
  <path d="m7.1837 1.8446c0.17509 2.0181 1.3811 3.4614 3.5325 3.5693" stroke="#ffffff" stroke-linecap="round" stroke-linejoin="round" stroke-width=".765"/>
  <circle cx="10.718" cy="1.8763" r=".62551" stroke-width="0" style="paint-order:fill markers stroke"/>
 </g>
</svg>
