<?xml version="1.0" encoding="UTF-8"?>
<!-- Created with Inkscape (http://www.inkscape.org/) -->
<svg width="50" height="50" version="1.1" viewBox="0 0 13.229 13.229" xmlns="http://www.w3.org/2000/svg">
 <g transform="matrix(.97606 .74886 -.74886 .97606 3.7556 -4.1096)" fill="#b3b3b3" stroke-width="2.3451">
  <path d="m6.6146 5.5103c-1.366 0.0012582-3.4569 0.581-4.8891 1.0357l0.8046 0.98848c1.3372-0.39334 2.9583-0.78787 4.0845-0.78891 1.1312-0.0010405 2.7606 0.39248 4.1047 0.78508l0.80822-0.98891c-1.4394-0.45398-3.541-1.0327-4.9129-1.0315z" style="paint-order:fill markers stroke"/>
  <path d="m6.6146 3.0402c-2.2464 0.0020692-6.4637 1.5702-6.4637 1.5702l0.78186 0.96082c1.3246-0.44938 4.032-1.2942 5.6818-1.2957 1.657-0.0015243 4.3787 0.84188 5.7097 1.2906l0.78496-0.96082s-4.239-1.5671-6.4947-1.5651z" style="paint-order:fill markers stroke"/>
  <path d="m6.6146 10.451c-0.45907 4.22e-4 -1.0011 0.067-1.572 0.17148l1.572 1.9323 1.5803-1.9344c-0.57398-0.10399-1.119-0.16978-1.5803-0.16936z" style="paint-order:fill markers stroke"/>
  <path d="m6.6146 7.9809c-0.90404 8.327e-4 -2.1273 0.2553-3.2665 0.55913l0.83509 1.0268c0.87678-0.20326 1.7458-0.35 2.4314-0.35063 0.68875-6.336e-4 1.5623 0.14501 2.4438 0.34765l0.83923-1.0272c-1.1451-0.30318-2.3748-0.55656-3.283-0.55573z" style="paint-order:fill markers stroke"/>
 </g>
</svg>
