<?xml version="1.0" encoding="UTF-8"?>
<!-- Created with Inkscape (http://www.inkscape.org/) -->
<svg width="50" height="50" version="1.1" viewBox="0 0 13.229 13.229" xmlns="http://www.w3.org/2000/svg">
 <path transform="scale(.26458)" d="m24.068 2.7402c-7.8903-4e-7 -14.287 8.3968-14.287 16.287 0 3.9452 1.6002 9.5162 4.1855 12.102 1.2927 1.2927 2.3916 1.8594 3.8047 3.0625 0.78071 0.66468 0.86342 2.9939 0.97852 5.8262h6.8535v2.1504h-6.748c0.05995 1.0172 0.13867 2.0623 0.27539 3.1113 0.19942 1.5301 3.2475 1.0635 4.9297 1.0781 1.6435 0.01427 4.6536 0.3049 4.834-0.96875 0.27668-1.9541 0.3517-4.9301 0.53906-7.3438h-7.4824v-2.041h7.6953c0.14208-0.92328 0.33578-1.5969 0.61914-1.8125 1.477-1.1236 2.6116-1.7698 3.9043-3.0625 2.5854-2.5854 4.1855-8.1564 4.1855-12.102 0-7.8903-6.3968-16.287-14.287-16.287zm4.6094 6.8633s2.8303 1.1787 3.9297 2.2012c1.177 1.0946 2.6562 4.0254 2.6562 4.0254l-1.9531 2.502s-1.4773-2.9307-2.6543-4.0254c-1.0994-1.0225-3.9297-2.2012-3.9297-2.2012z" fill="#ffffff" stroke-width="7" style="paint-order:fill markers stroke"/>
</svg>
