<?xml version="1.0" encoding="UTF-8"?>
<svg width="210mm" height="297mm" version="1.1" viewBox="0 0 210 297" xmlns="http://www.w3.org/2000/svg" xmlns:xlink="http://www.w3.org/1999/xlink">
 <defs>
  <linearGradient id="linearGradient67">
   <stop stop-color="#f00" stop-opacity="0" offset="0"/>
   <stop stop-color="#f00" stop-opacity=".49804" offset="1"/>
   <stop stop-color="#f00" offset="1"/>
  </linearGradient>
  <radialGradient id="radialGradient1052" cx="97.266" cy="108.9" r="42.318" gradientTransform="matrix(1.0601 0 0 1.0601 -58.249 -70.582)" gradientUnits="userSpaceOnUse" xlink:href="#linearGradient67"/>
  <linearGradient id="linearGradient4508" x1="59.467" x2="162.64" y1="113.54" y2="125.81" gradientTransform="matrix(.99199 0 0 .99199 -51.491 -67.635)" gradientUnits="userSpaceOnUse">
   <stop stop-color="#ccc" offset="0"/>
   <stop stop-color="#999" offset="1"/>
  </linearGradient>
  <radialGradient id="radialGradient5547" cx="97.266" cy="113.72" r="45.336" gradientTransform="matrix(.98949 0 0 .98949 -51.384 -67.661)" gradientUnits="userSpaceOnUse" xlink:href="#linearGradient67"/>
  <radialGradient id="radialGradient5549" cx="97.266" cy="113.72" r="45.336" gradientTransform="matrix(.99199 0 0 .97581 -51.491 -65.796)" gradientUnits="userSpaceOnUse">
   <stop offset="0"/>
   <stop stop-opacity="0" offset="1"/>
  </radialGradient>
 </defs>
 <ellipse id="activeCircle" cx="44.859" cy="44.859" rx="44.86" ry="44.86" fill="url(#radialGradient1052)" fill-rule="evenodd" stroke="url(#radialGradient5547)" stroke-width=".28048"/>
 <circle id="buttonCircle" cx="45" cy="45" r="37.061" fill="url(#linearGradient4508)" fill-rule="evenodd" stroke="url(#radialGradient5549)" stroke-width=".8789"/>
 <g id="iconPower" transform="translate(-51.893 -69.681)" fill="#00f">
  <path d="m102.84 92.181v4.4653a18.267 18.601 0 0 1 12.293 17.551 18.267 18.601 0 0 1-18.267 18.601 18.267 18.601 0 0 1-18.267-18.601 18.267 18.601 0 0 1 12.137-17.485v-4.4643a22.5 22.911 0 0 0-16.343 22.023 22.5 22.911 0 0 0 22.5 22.911 22.5 22.911 0 0 0 22.5-22.911 22.5 22.911 0 0 0-16.554-22.089z"/>
  <rect x="94.435" y="86.295" width="4.6926" height="25.78"/>
 </g>
</svg>
