<?xml version="1.0" encoding="UTF-8"?>
<!-- Created with Inkscape (http://www.inkscape.org/) -->
<svg width="50" height="50" version="1.1" viewBox="0 0 13.229 13.229" xmlns="http://www.w3.org/2000/svg">
 <path transform="scale(.26458)" d="m24.846 3.4141c-4.8694 0-5.8594 4.6914-5.8594 4.6914v20.621a10.003 10.003 0 0 0-4.1992 8.1172 10.003 10.003 0 0 0 10.004 10.004 10.003 10.003 0 0 0 10.002-10.004 10.003 10.003 0 0 0-4.0879-8.0352v-20.703c0-1e-7 -1.0751-4.6914-5.8594-4.6914z" fill="none" stroke="#ffffff" stroke-linecap="round" stroke-miterlimit="27" stroke-width="2.2677" style="paint-order:fill markers stroke"/>
 <g fill="#ffffff" stroke-miterlimit="27" stroke-width="0">
  <path transform="scale(.26458)" d="m24.303 23.918c-0.015272 0.82913-0.55859 1.0801-0.55859 1.0801h-1.3145v1.1738h1.3125s0.55859 0.20839 0.55859 1.1172c0 0.85728-0.55859 1.1172-0.55859 1.1172h-1.3125v1.9961a6.6751 6.6751 0 0 0-4.2656 6.2246 6.6751 6.6751 0 0 0 6.6758 6.6738 6.6751 6.6751 0 0 0 6.6738-6.6738 6.6751 6.6751 0 0 0-4.3125-6.2422v-6.4668h-2.8984z" style="paint-order:fill markers stroke"/>
  <path d="m4.9767 7.025h1.1837s0.12029 0.036301 0.12029 0.19519c0 0.14988-0.12029 0.19519-0.12029 0.19519h-1.1837z" style="paint-order:fill markers stroke"/>
  <path d="m4.9767 6.1236h1.1837s0.12029 0.036301 0.12029 0.19519c0 0.14988-0.12029 0.19519-0.12029 0.19519h-1.1837z" style="paint-order:fill markers stroke"/>
  <path d="m4.9767 5.2431h1.1837s0.12029 0.036301 0.12029 0.19519c0 0.14988-0.12029 0.19519-0.12029 0.19519h-1.1837z" style="paint-order:fill markers stroke"/>
  <path d="m4.9767 4.3443h1.1837s0.12029 0.036301 0.12029 0.19519c0 0.14988-0.12029 0.19519-0.12029 0.19519h-1.1837z" style="paint-order:fill markers stroke"/>
  <path d="m4.9767 3.4542h1.1837s0.12029 0.036301 0.12029 0.19519c0 0.14988-0.12029 0.19519-0.12029 0.19519h-1.1837z" style="paint-order:fill markers stroke"/>
  <path d="m5.1614 2.5671h1.1837s0.12029 0.036301 0.12029 0.19519c0 0.14988-0.12029 0.19519-0.12029 0.19519h-1.1837z" style="paint-order:fill markers stroke"/>
 </g>
</svg>
