<?xml version="1.0" encoding="UTF-8"?>
<!-- Created with Inkscape (http://www.inkscape.org/) -->
<svg width="50" height="50" version="1.1" viewBox="0 0 13.229 13.229" xmlns="http://www.w3.org/2000/svg">
 <g fill="#ffffff" stroke-width="0">
  <path d="m5.4259 4.5102 1.9567-0.00944c0.17021-0.00571 0.33154 0.050723 0.48078 0.19161l0.85308 1.2017c0.089988 0.18278 0.18855 0.36423 0.01936 0.58691l-0.76146 1.3523c-0.65973 0.34114-0.70654-0.034665-0.50249-0.7039l0.5162-0.73736c0.053154-0.094664 0.036472-0.18234-0.016439-0.2664l-0.37215-0.41396 0.00444 5.475c-0.33596 0.55208-0.69079 0.54606-1.0645-0.0194l-0.01525-2.8341h-0.21335l0.02853 2.8343c-0.36223 0.54847-0.71909 0.588-1.0693-0.0046l-0.031141-5.4224-0.36164 0.44991c-0.054938 0.052905-0.02722 0.1019-0.020014 0.15187l0.57629 0.96716c0.030221 0.43085 0.066673 0.86868-0.5757 0.54478l-0.74371-1.3828c-0.10901-0.18134-0.10329-0.36268 8.202e-4 -0.54402l0.90142-1.2297c0.10618-0.063425 0.067064-0.15956 0.40949-0.18748z"/>
  <circle cx="6.4338" cy="3.0993" r="1.074" style="paint-order:fill markers stroke"/>
 </g>
</svg>
